{
  "accessors": [
    {
      "bufferView": 2,
      "componentType": 5126,
      "count": 1053,
      "max": [
        16.774782180786133,
        3.096363067626953,
        2.9702062606811523
      ],
      "min": [
        -17.983266830444336,
        -5.387524127960205,
        -4.599503517150879
      ],
      "type": "VEC3"
    },
    {
      "bufferView": 2,
      "byteOffset": 12636,
      "componentType": 5126,
      "count": 1053,
      "max": [
        0.9998204112052917,
        0.9996758699417114,
        0.9992538094520569
      ],
      "min": [
        -0.9995099902153015,
        -1.0,
        -1.0
      ],
      "type": "VEC3"
    },
    {
      "bufferView": 1,
      "componentType": 5126,
      "count": 1053,
      "max": [
        0.9921145439147949,
        0.9939069747924805
      ],
      "min": [
        0.010065287351608276,
        0.011503910645842552
      ],
      "type": "VEC2"
    },
    {
      "bufferView": 0,
      "componentType": 5125,
      "count": 2898,
      "type": "SCALAR"
    },
    {
      "bufferView": 2,
      "byteOffset": 25272,
      "componentType": 5126,
      "count": 475,
      "max": [
        20.638046264648438,
        11.037872314453125,
        12.935408592224121
      ],
      "min": [
        -20.642566680908203,
        -11.033721923828125,
        -4.610082626342773
      ],
      "type": "VEC3"
    },
    {
      "bufferView": 2,
      "byteOffset": 30972,
      "componentType": 5126,
      "count": 475,
      "max": [
        0.9998013973236084,
        1.0,
        1.0
      ],
      "min": [
        -0.9999998807907104,
        -1.0,
        -1.0
      ],
      "type": "VEC3"
    },
    {
      "bufferView": 3,
      "componentType": 5126,
      "count": 475,
      "max": [
        0.3280242085456848,
        1.0,
        1.0,
        1.0
      ],
      "min": [
        -1.0,
        -1.0,
        -0.9999998211860657,
        -1.0
      ],
      "type": "VEC4"
    },
    {
      "bufferView": 1,
      "byteOffset": 8424,
      "componentType": 5126,
      "count": 475,
      "max": [
        1.953831672668457,
        2.0626065731048584
      ],
      "min": [
        0.013445969671010971,
        0.021389782428741455
      ],
      "type": "VEC2"
    },
    {
      "bufferView": 0,
      "byteOffset": 11592,
      "componentType": 5125,
      "count": 1572,
      "type": "SCALAR"
    },
    {
      "bufferView": 2,
      "byteOffset": 36672,
      "componentType": 5126,
      "count": 4767,
      "max": [
        13.646756172180176,
        1.8135464191436768,
        2.4167585372924805
      ],
      "min": [
        -19.41033363342285,
        -1.2299845218658447,
        -2.4516639709472656
      ],
      "type": "VEC3"
    },
    {
      "bufferView": 2,
      "byteOffset": 93876,
      "componentType": 5126,
      "count": 4767,
      "max": [
        0.999971330165863,
        0.9999992251396179,
        0.9999946355819702
      ],
      "min": [
        -0.9999017715454102,
        -0.9999621510505676,
        -0.9999871850013733
      ],
      "type": "VEC3"
    },
    {
      "bufferView": 1,
      "byteOffset": 12224,
      "componentType": 5126,
      "count": 4767,
      "max": [
        0.9910528659820557,
        0.9919326305389404
      ],
      "min": [
        0.011979490518569946,
        0.013191372156143188
      ],
      "type": "VEC2"
    },
    {
      "bufferView": 0,
      "byteOffset": 17880,
      "componentType": 5125,
      "count": 15450,
      "type": "SCALAR"
    },
    {
      "bufferView": 2,
      "byteOffset": 151080,
      "componentType": 5126,
      "count": 58787,
      "max": [
        19.816465377807617,
        3.7601089477539063,
        3.630025863647461
      ],
      "min": [
        -17.220443725585938,
        -5.986361980438232,
        -7.077498912811279
      ],
      "type": "VEC3"
    },
    {
      "bufferView": 2,
      "byteOffset": 856524,
      "componentType": 5126,
      "count": 58787,
      "max": [
        1.0,
        1.0,
        1.0
      ],
      "min": [
        -1.0,
        -1.0,
        -1.0
      ],
      "type": "VEC3"
    },
    {
      "bufferView": 3,
      "byteOffset": 7600,
      "componentType": 5126,
      "count": 58787,
      "max": [
        0.9999995827674866,
        1.0,
        1.0,
        1.0
      ],
      "min": [
        -0.9999983310699463,
        -0.9999897480010986,
        -1.0,
        -1.0
      ],
      "type": "VEC4"
    },
    {
      "bufferView": 1,
      "byteOffset": 50360,
      "componentType": 5126,
      "count": 58787,
      "max": [
        1.0,
        0.9994282722473145
      ],
      "min": [
        0.0,
        0.0
      ],
      "type": "VEC2"
    },
    {
      "bufferView": 0,
      "byteOffset": 79680,
      "componentType": 5125,
      "count": 145941,
      "type": "SCALAR"
    },
    {
      "bufferView": 2,
      "byteOffset": 1561968,
      "componentType": 5126,
      "count": 23943,
      "max": [
        12.326412200927734,
        3.252743721008301,
        3.055577278137207
      ],
      "min": [
        -22.91108512878418,
        -5.611294746398926,
        -2.5581159591674805
      ],
      "type": "VEC3"
    },
    {
      "bufferView": 2,
      "byteOffset": 1849284,
      "componentType": 5126,
      "count": 23943,
      "max": [
        0.999955952167511,
        0.9988558292388916,
        1.0
      ],
      "min": [
        -0.999191403388977,
        -0.9988970756530762,
        -0.9999867677688599
      ],
      "type": "VEC3"
    },
    {
      "bufferView": 3,
      "byteOffset": 948192,
      "componentType": 5126,
      "count": 23943,
      "max": [
        0.9992468953132629,
        0.9998186826705933,
        0.9999439716339111,
        1.0
      ],
      "min": [
        -0.9998078346252441,
        -0.9997494220733643,
        -0.9999925494194031,
        -1.0
      ],
      "type": "VEC4"
    },
    {
      "bufferView": 1,
      "byteOffset": 520656,
      "componentType": 5126,
      "count": 23943,
      "max": [
        1.0,
        0.999809741973877
      ],
      "min": [
        0.0,
        0.0
      ],
      "type": "VEC2"
    },
    {
      "bufferView": 0,
      "byteOffset": 663444,
      "componentType": 5125,
      "count": 67362,
      "type": "SCALAR"
    },
    {
      "bufferView": 2,
      "byteOffset": 2136600,
      "componentType": 5126,
      "count": 801,
      "max": [
        15.8468017578125,
        1.613492488861084,
        3.068004608154297
      ],
      "min": [
        -18.85858726501465,
        -5.902130126953125,
        -2.637301445007324
      ],
      "type": "VEC3"
    },
    {
      "bufferView": 2,
      "byteOffset": 2146212,
      "componentType": 5126,
      "count": 801,
      "max": [
        0.9998924136161804,
        0.9998959302902222,
        0.5511332154273987
      ],
      "min": [
        -0.9998959898948669,
        -0.999900758266449,
        -1.0
      ],
      "type": "VEC3"
    },
    {
      "bufferView": 3,
      "byteOffset": 1331280,
      "componentType": 5126,
      "count": 801,
      "max": [
        0.9998531937599182,
        0.999947726726532,
        0.39462876319885254,
        1.0
      ],
      "min": [
        -0.9998740553855896,
        -0.9998490810394287,
        -0.3946361839771271,
        1.0
      ],
      "type": "VEC4"
    },
    {
      "bufferView": 1,
      "byteOffset": 712200,
      "componentType": 5126,
      "count": 801,
      "max": [
        0.9776928424835205,
        0.984872579574585
      ],
      "min": [
        0.02195761166512966,
        0.015150308609008789
      ],
      "type": "VEC2"
    },
    {
      "bufferView": 0,
      "byteOffset": 932892,
      "componentType": 5125,
      "count": 2628,
      "type": "SCALAR"
    },
    {
      "bufferView": 2,
      "byteOffset": 2155824,
      "componentType": 5126,
      "count": 3955,
      "max": [
        16.58710479736328,
        3.0713672637939453,
        4.202203750610352
      ],
      "min": [
        -18.565013885498047,
        -5.632538795471191,
        -2.318866729736328
      ],
      "type": "VEC3"
    },
    {
      "bufferView": 2,
      "byteOffset": 2203284,
      "componentType": 5126,
      "count": 3955,
      "max": [
        0.9991108179092407,
        0.9972312450408936,
        0.9999434351921082
      ],
      "min": [
        -0.9992182850837708,
        -0.9997811913490295,
        -0.9994379878044128
      ],
      "type": "VEC3"
    },
    {
      "bufferView": 1,
      "byteOffset": 718608,
      "componentType": 5126,
      "count": 3955,
      "max": [
        0.998236894607544,
        1.0
      ],
      "min": [
        0.0,
        0.0
      ],
      "type": "VEC2"
    },
    {
      "bufferView": 0,
      "byteOffset": 943404,
      "componentType": 5125,
      "count": 15099,
      "type": "SCALAR"
    }
  ],
  "asset": {
    "extras": {
      "author": "Leon_dp (https://sketchfab.com/leondp)",
      "license": "CC-BY-4.0 (http://creativecommons.org/licenses/by/4.0/)",
      "source": "https://sketchfab.com/3d-models/25-pack-burning-wall-torches-1-ce4a1727d13b4dcc8496ad63f739174f",
      "title": "25-pack burning wall torches (1)"
    },
    "generator": "Sketchfab-12.68.0",
    "version": "2.0"
  },
  "bufferViews": [
    {
      "buffer": 0,
      "byteLength": 1003800,
      "name": "floatBufferViews",
      "target": 34963
    },
    {
      "buffer": 0,
      "byteLength": 750248,
      "byteOffset": 1003800,
      "byteStride": 8,
      "name": "floatBufferViews",
      "target": 34962
    },
    {
      "buffer": 0,
      "byteLength": 2250744,
      "byteOffset": 1754048,
      "byteStride": 12,
      "name": "floatBufferViews",
      "target": 34962
    },
    {
      "buffer": 0,
      "byteLength": 1344096,
      "byteOffset": 4004792,
      "byteStride": 16,
      "name": "floatBufferViews",
      "target": 34962
    }
  ],
  "buffers": [
    {
      "byteLength": 5348888,
      "uri": "scene.bin"
    }
  ],
  "extensionsUsed": [
    "KHR_materials_clearcoat"
  ],
  "images": [
    {
      "uri": "textures/wood_baseColor.jpeg"
    },
    {
      "uri": "textures/wood_metallicRoughness.png"
    },
    {
      "uri": "textures/wall-floor_baseColor.jpeg"
    },
    {
      "uri": "textures/wall-floor_metallicRoughness.png"
    },
    {
      "uri": "textures/wall-floor_normal.jpeg"
    },
    {
      "uri": "textures/holders_baseColor.jpeg"
    },
    {
      "uri": "textures/holders_metallicRoughness.png"
    },
    {
      "uri": "textures/metal_metallicRoughness.png"
    },
    {
      "uri": "textures/metal_normal.jpeg"
    },
    {
      "uri": "textures/metal_clearcoat_normal.png"
    },
    {
      "uri": "textures/coals_baseColor.jpeg"
    },
    {
      "uri": "textures/coals_metallicRoughness.png"
    },
    {
      "uri": "textures/coals_normal.jpeg"
    },
    {
      "uri": "textures/rope_baseColor.jpeg"
    },
    {
      "uri": "textures/rope_metallicRoughness.png"
    },
    {
      "uri": "textures/rope_normal.jpeg"
    }
  ],
  "materials": [
    {
      "doubleSided": true,
      "name": "wood",
      "occlusionTexture": {
        "index": 1
      },
      "pbrMetallicRoughness": {
        "baseColorTexture": {
          "index": 0
        },
        "metallicFactor": 0.0,
        "metallicRoughnessTexture": {
          "index": 1
        }
      }
    },
    {
      "doubleSided": true,
      "name": "wall-floor",
      "normalTexture": {
        "index": 4
      },
      "occlusionTexture": {
        "index": 3
      },
      "pbrMetallicRoughness": {
        "baseColorTexture": {
          "index": 2
        },
        "metallicFactor": 0.0,
        "metallicRoughnessTexture": {
          "index": 3
        },
        "roughnessFactor": 0.888
      }
    },
    {
      "doubleSided": true,
      "name": "holders",
      "pbrMetallicRoughness": {
        "baseColorTexture": {
          "index": 5
        },
        "metallicFactor": 0.777,
        "metallicRoughnessTexture": {
          "index": 6
        },
        "roughnessFactor": 0.40312741203052516
      }
    },
    {
      "doubleSided": true,
      "extensions": {
        "KHR_materials_clearcoat": {
          "clearcoatFactor": 1.0,
          "clearcoatNormalTexture": {
            "index": 9
          },
          "clearcoatRoughnessFactor": 1.0,
          "clearcoatRoughnessTexture": {
            "index": 7
          }
        }
      },
      "name": "metal",
      "normalTexture": {
        "index": 8
      },
      "occlusionTexture": {
        "index": 7
      },
      "pbrMetallicRoughness": {
        "baseColorTexture": {
          "index": 5
        },
        "metallicRoughnessTexture": {
          "index": 7
        }
      }
    },
    {
      "doubleSided": true,
      "emissiveFactor": [
        1.0,
        1.0,
        1.0
      ],
      "emissiveTexture": {
        "index": 10
      },
      "name": "coals",
      "normalTexture": {
        "index": 12
      },
      "occlusionTexture": {
        "index": 11
      },
      "pbrMetallicRoughness": {
        "baseColorTexture": {
          "index": 10
        },
        "metallicFactor": 0.0,
        "metallicRoughnessTexture": {
          "index": 11
        }
      }
    },
    {
      "doubleSided": true,
      "name": "rope",
      "normalTexture": {
        "index": 15
      },
      "pbrMetallicRoughness": {
        "baseColorTexture": {
          "index": 13
        },
        "metallicFactor": 0.0,
        "metallicRoughnessTexture": {
          "index": 14
        }
      }
    },
    {
      "alphaMode": "BLEND",
      "doubleSided": true,
      "emissiveFactor": [
        1.0,
        0.48758660900000017,
        0.0
      ],
      "name": "flame",
      "pbrMetallicRoughness": {
        "baseColorFactor": [
          0.0,
          0.0,
          0.0,
          0.3969213043
        ],
        "metallicFactor": 0.0
      }
    }
  ],
  "meshes": [
    {
      "name": "wood_wood_0",
      "primitives": [
        {
          "attributes": {
            "NORMAL": 1,
            "POSITION": 0,
            "TEXCOORD_0": 2
          },
          "indices": 3,
          "material": 0,
          "mode": 4
        }
      ]
    },
    {
      "name": "wall_floor_wall-floor_0",
      "primitives": [
        {
          "attributes": {
            "NORMAL": 5,
            "POSITION": 4,
            "TANGENT": 6,
            "TEXCOORD_0": 7
          },
          "indices": 8,
          "material": 1,
          "mode": 4
        }
      ]
    },
    {
      "name": "holders_holders_0",
      "primitives": [
        {
          "attributes": {
            "NORMAL": 10,
            "POSITION": 9,
            "TEXCOORD_0": 11
          },
          "indices": 12,
          "material": 2,
          "mode": 4
        }
      ]
    },
    {
      "name": "metal_metal_0",
      "primitives": [
        {
          "attributes": {
            "NORMAL": 14,
            "POSITION": 13,
            "TANGENT": 15,
            "TEXCOORD_0": 16
          },
          "indices": 17,
          "material": 3,
          "mode": 4
        }
      ]
    },
    {
      "name": "coals_coals_0",
      "primitives": [
        {
          "attributes": {
            "NORMAL": 19,
            "POSITION": 18,
            "TANGENT": 20,
            "TEXCOORD_0": 21
          },
          "indices": 22,
          "material": 4,
          "mode": 4
        }
      ]
    },
    {
      "name": "rope_rope_0",
      "primitives": [
        {
          "attributes": {
            "NORMAL": 24,
            "POSITION": 23,
            "TANGENT": 25,
            "TEXCOORD_0": 26
          },
          "indices": 27,
          "material": 5,
          "mode": 4
        }
      ]
    },
    {
      "name": "flame_flame_0",
      "primitives": [
        {
          "attributes": {
            "NORMAL": 29,
            "POSITION": 28,
            "TEXCOORD_0": 30
          },
          "indices": 31,
          "material": 6,
          "mode": 4
        }
      ]
    }
  ],
  "nodes": [
    {
      "children": [
        1
      ],
      "matrix": [
        1.0,
        0.0,
        0.0,
        0.0,
        0.0,
        2.220446049250313e-16,
        -1.0,
        0.0,
        0.0,
        1.0,
        2.220446049250313e-16,
        0.0,
        0.0,
        -6.541000061588423e-07,
        1.4293000276666132e-06,
        1.0
      ],
      "name": "Sketchfab_model"
    },
    {
      "children": [
        2
      ],
      "matrix": [
        0.009999999776482582,
        0.0,
        0.0,
        0.0,
        0.0,
        0.0,
        0.009999999776482582,
        0.0,
        0.0,
        -0.009999999776482582,
        0.0,
        0.0,
        0.0,
        0.0,
        0.0,
        1.0
      ],
      "name": "06b6df05f9e0466fb64c93460d8673f5.fbx"
    },
    {
      "children": [
        3,
        5,
        7,
        9,
        11,
        13,
        15
      ],
      "name": "RootNode"
    },
    {
      "children": [
        4
      ],
      "matrix": [
        100.0,
        0.0,
        0.0,
        0.0,
        0.0,
        -1.629206793918314e-05,
        -99.99999999999868,
        0.0,
        0.0,
        99.99999999999868,
        -1.629206793918314e-05,
        0.0,
        92.9864730834961,
        1275.4945068359375,
        -132.22499084472656,
        1.0
      ],
      "name": "wood"
    },
    {
      "mesh": 0,
      "name": "wood_wood_0"
    },
    {
      "children": [
        6
      ],
      "matrix": [
        100.0,
        0.0,
        0.0,
        0.0,
        0.0,
        -1.629206793918314e-05,
        -99.99999999999868,
        0.0,
        0.0,
        99.99999999999868,
        -1.629206793918314e-05,
        0.0,
        78.77986145019531,
        369.086181640625,
        -124.71797180175781,
        1.0
      ],
      "name": "wall_floor"
    },
    {
      "mesh": 1,
      "name": "wall_floor_wall-floor_0"
    },
    {
      "children": [
        8
      ],
      "matrix": [
        100.0,
        0.0,
        0.0,
        0.0,
        0.0,
        -1.629206793918314e-05,
        -99.99999999999868,
        0.0,
        0.0,
        99.99999999999868,
        -1.629206793918314e-05,
        0.0,
        228.94947814941406,
        1247.4107666015625,
        -290.2884826660156,
        1.0
      ],
      "name": "holders"
    },
    {
      "mesh": 2,
      "name": "holders_holders_0"
    },
    {
      "children": [
        10
      ],
      "matrix": [
        100.0,
        0.0,
        0.0,
        0.0,
        -0.0,
        -1.629206793918314e-05,
        -99.99999999999868,
        0.0,
        0.0,
        99.99999999999868,
        -1.629206793918314e-05,
        0.0,
        -141.20846557617188,
        1428.7672119140625,
        -143.53346252441406,
        1.0
      ],
      "name": "metal"
    },
    {
      "mesh": 3,
      "name": "metal_metal_0"
    },
    {
      "children": [
        12
      ],
      "matrix": [
        100.0,
        0.0,
        0.0,
        0.0,
        0.0,
        -1.629206793918314e-05,
        -99.99999999999868,
        0.0,
        0.0,
        99.99999999999868,
        -1.629206793918314e-05,
        0.0,
        546.7468872070313,
        1550.88037109375,
        -143.4179229736328,
        1.0
      ],
      "name": "coals"
    },
    {
      "mesh": 4,
      "name": "coals_coals_0"
    },
    {
      "children": [
        14
      ],
      "matrix": [
        100.0,
        0.0,
        0.0,
        0.0,
        0.0,
        -1.629206793918314e-05,
        -99.99999999999868,
        0.0,
        0.0,
        99.99999999999868,
        -1.629206793918314e-05,
        0.0,
        186.35023498535156,
        990.6421508789063,
        -281.6476745605469,
        1.0
      ],
      "name": "rope"
    },
    {
      "mesh": 5,
      "name": "rope_rope_0"
    },
    {
      "children": [
        16
      ],
      "matrix": [
        100.0,
        0.0,
        0.0,
        0.0,
        0.0,
        -1.629206793918314e-05,
        -99.99999999999868,
        0.0,
        0.0,
        99.99999999999868,
        -1.629206793918314e-05,
        0.0,
        118.9925765991211,
        1567.782958984375,
        -154.47109985351563,
        1.0
      ],
      "name": "flame"
    },
    {
      "mesh": 6,
      "name": "flame_flame_0"
    }
  ],
  "samplers": [
    {
      "magFilter": 9729,
      "minFilter": 9987,
      "wrapS": 10497,
      "wrapT": 10497
    }
  ],
  "scene": 0,
  "scenes": [
    {
      "name": "Sketchfab_Scene",
      "nodes": [
        0
      ]
    }
  ],
  "textures": [
    {
      "sampler": 0,
      "source": 0
    },
    {
      "sampler": 0,
      "source": 1
    },
    {
      "sampler": 0,
      "source": 2
    },
    {
      "sampler": 0,
      "source": 3
    },
    {
      "sampler": 0,
      "source": 4
    },
    {
      "sampler": 0,
      "source": 5
    },
    {
      "sampler": 0,
      "source": 6
    },
    {
      "sampler": 0,
      "source": 7
    },
    {
      "sampler": 0,
      "source": 8
    },
    {
      "sampler": 0,
      "source": 9
    },
    {
      "sampler": 0,
      "source": 10
    },
    {
      "sampler": 0,
      "source": 11
    },
    {
      "sampler": 0,
      "source": 12
    },
    {
      "sampler": 0,
      "source": 13
    },
    {
      "sampler": 0,
      "source": 14
    },
    {
      "sampler": 0,
      "source": 15
    }
  ]
}
